<svg xml:space="preserve" width="75.59" height="75.59" xmlns="http://www.w3.org/2000/svg">
    <path d="M67.914 32.304c-3.128 4.635-13.398 17.508-31.001 17.508-13.769 0-27.99-8.024-34.255-12.046.441-1.27.426-2.632.295-3.699.057 0 .116.003.174.008 5.565.494 14.743 4.985 14.743 4.985 10.187 5.367 19.205 5.208 20.59 5.148.152-.007.304-.01.456-.013 12.452-.221 23.052-10.925 25.75-13.885l2.242 1.72a1.374 1.374 0 0 0 1.006.274" style="fill:#fa4bea;fill-opacity:1;fill-rule:nonzero;stroke:none;stroke-width:.00580085"/>
    <path d="M2.658 37.766c-.37 1.063-1.059 2.061-2.267 2.765a7.682 7.682 0 0 1 .22-4.122c.15-.45.344-.887.58-1.308a2.016 2.016 0 0 1 1.759-1.034h.003c.131 1.067.146 2.43-.295 3.7m69.524-6.427-4.133.94c-.044.01-.09.018-.135.024.356-.581.8-1.455 1.284-2.748 1.006-2.686.956-8.823.916-10.655l2.472 1.253c-2.408 5.686-.904 10.023-.404 11.186" style="fill:#fa4bea;fill-opacity:1;fill-rule:nonzero;stroke:none;stroke-width:.00580085"/>
    <path d="M74.764 13.648c-1.687.461-4.083 1.492-4.591 5.282l-.059-.03-2.644-1.342s1.876-4.832 6.942-4.07c.062.008.177.036.352.16m-5.566 15.908c-.485 1.293-.928 2.167-1.284 2.748a1.376 1.376 0 0 1-1.006-.274l-2.242-1.72c.25-.275.431-.482.54-.609.074-.086.145-.174.21-.268 3.019-4.337 2.054-11.875 2.054-11.875l2.644 1.343c.04 1.832.09 7.969-.916 10.655" style="fill:#fa4bea;fill-opacity:1;fill-rule:nonzero;stroke:none;stroke-width:.00580085"/>
    <path d="m75.08 15.933-2.494 4.221-2.413-1.224c.508-3.79 2.904-4.821 4.59-5.282.07.048.148.111.235.195.556.529.5 1.447.082 2.09m-3.062 24.065a25.384 25.384 0 0 0-.183.432C63.787 60 37.851 60.843 37.851 60.843 13.524 60.899 3.95 48.118.49 40.928a7.774 7.774 0 0 1-.1-.397c1.208-.704 1.897-1.702 2.266-2.765 6.265 4.022 20.487 12.046 34.256 12.046 17.603 0 27.873-12.873 31.001-17.508.045-.006.09-.013.135-.024l3.955-.9c1.282 5.211.277 8.015.014 8.618" style="fill:#fa4bea;fill-opacity:1;fill-rule:nonzero;stroke:none;stroke-width:.00580085"/>
    <path d="M72.326 31.648s-.057-.105-.144-.308l-.178.04c1.282 5.211.277 8.015.014 8.618a25.384 25.384 0 0 0-.183.432C63.787 60 37.851 60.843 37.851 60.843 13.524 60.899 3.95 48.118.49 40.928a7.649 7.649 0 0 0 .367 1.024c2.56 5.808 9.48 16.489 26.49 19.819 3.356.657 7.107 1.027 11.294 1.018 0 0 3.216-.104 7.734-1.094 8.313-1.821 21.037-6.64 26.251-19.319.06-.145.12-.289.183-.433.29-.664 1.482-4.003-.484-10.295" style="fill:#fa4bea;fill-opacity:1;fill-rule:nonzero;stroke:none;stroke-width:.00580085"/>
</svg>
